<svg width="122" height="30" viewBox="0 0 122 30" fill="none" xmlns="http://www.w3.org/2000/svg">
<path d="M9.89258 8.97461H4.50195V12.3633H10.8691V15H1.07422V0.78125H10.8887V3.42773H4.50195V6.42578H9.89258V8.97461ZM16.5742 11.084L18.2441 4.43359H21.7109L18.2637 15H14.9043L11.457 4.43359H14.9336L16.5742 11.084ZM28.168 15.1953C26.5469 15.1953 25.235 14.7135 24.2324 13.75C23.2298 12.7799 22.7285 11.5202 22.7285 9.9707V9.69727C22.7285 8.61654 22.9271 7.66276 23.3242 6.83594C23.7279 6.00911 24.3138 5.37109 25.082 4.92188C25.8503 4.46615 26.7617 4.23828 27.8164 4.23828C29.3008 4.23828 30.4727 4.70052 31.332 5.625C32.1914 6.54297 32.6211 7.82552 32.6211 9.47266V10.752H26.0781C26.1953 11.3444 26.4525 11.8099 26.8496 12.1484C27.2467 12.487 27.7611 12.6562 28.3926 12.6562C29.4342 12.6562 30.248 12.2917 30.834 11.5625L32.3379 13.3398C31.9277 13.9062 31.3451 14.3587 30.5898 14.6973C29.8411 15.0293 29.0339 15.1953 28.168 15.1953ZM27.7969 6.77734C26.8333 6.77734 26.2604 7.41536 26.0781 8.69141H29.3984V8.4375C29.4115 7.91016 29.278 7.50326 28.998 7.2168C28.7181 6.92383 28.3177 6.77734 27.7969 6.77734ZM37.4766 4.43359L37.584 5.67383C38.3132 4.7168 39.319 4.23828 40.6016 4.23828C41.7018 4.23828 42.5221 4.56706 43.0625 5.22461C43.6094 5.88216 43.8926 6.87174 43.9121 8.19336V15H40.6113V8.33008C40.6113 7.79622 40.5039 7.4056 40.2891 7.1582C40.0742 6.9043 39.6836 6.77734 39.1172 6.77734C38.4727 6.77734 37.9941 7.03125 37.6816 7.53906V15H34.3906V4.43359H37.4766ZM50.0762 1.80664V4.43359H51.8145V6.71875H50.0762V11.5527C50.0762 11.9499 50.1478 12.2266 50.291 12.3828C50.4342 12.5391 50.7174 12.6172 51.1406 12.6172C51.4661 12.6172 51.7396 12.5977 51.9609 12.5586V14.9121C51.3685 15.1009 50.75 15.1953 50.1055 15.1953C48.9727 15.1953 48.1361 14.9284 47.5957 14.3945C47.0553 13.8607 46.7852 13.0501 46.7852 11.9629V6.71875H45.4375V4.43359H46.7852V1.80664H50.0762ZM53.7695 15V0.78125H58.877C60.7064 0.78125 62.0964 1.11654 63.0469 1.78711C64.0039 2.45768 64.4824 3.43099 64.4824 4.70703C64.4824 5.44271 64.3132 6.07096 63.9746 6.5918C63.6361 7.11263 63.138 7.49674 62.4805 7.74414C63.2227 7.93945 63.7923 8.30404 64.1895 8.83789C64.5866 9.37174 64.7852 10.0228 64.7852 10.791C64.7852 12.1842 64.3424 13.2324 63.457 13.9355C62.5781 14.6322 61.2728 14.987 59.541 15H53.7695ZM57.1973 8.95508V12.3633H59.4434C60.0618 12.3633 60.5371 12.2233 60.8691 11.9434C61.2012 11.6569 61.3672 11.2565 61.3672 10.7422C61.3672 9.55729 60.778 8.96159 59.5996 8.95508H57.1973ZM57.1973 6.70898H58.9844C59.7331 6.70247 60.2669 6.56576 60.5859 6.29883C60.9049 6.0319 61.0645 5.63802 61.0645 5.11719C61.0645 4.51823 60.8919 4.08854 60.5469 3.82812C60.2018 3.5612 59.6452 3.42773 58.877 3.42773H57.1973V6.70898ZM70.5 15H67.1992V4.43359H70.5V15ZM67.0039 1.70898C67.0039 1.24023 67.1732 0.85612 67.5117 0.556641C67.8503 0.257161 68.2897 0.107422 68.8301 0.107422C69.3704 0.107422 69.8099 0.257161 70.1484 0.556641C70.487 0.85612 70.6562 1.24023 70.6562 1.70898C70.6562 2.17773 70.487 2.56185 70.1484 2.86133C69.8099 3.16081 69.3704 3.31055 68.8301 3.31055C68.2897 3.31055 67.8503 3.16081 67.5117 2.86133C67.1732 2.56185 67.0039 2.17773 67.0039 1.70898ZM76.918 12.4609H81.7324V15H72.7578V13.1641L77.4453 6.97266H72.9629V4.43359H81.625V6.21094L76.918 12.4609ZM7.17773 23.4209C7.17773 24.5635 6.88802 25.4619 6.30859 26.1162C5.73242 26.7705 4.93001 27.0977 3.90137 27.0977C2.84993 27.0977 2.03776 26.777 1.46484 26.1357C0.895182 25.4912 0.610352 24.583 0.610352 23.4111C0.610352 22.249 0.89681 21.349 1.46973 20.7109C2.04264 20.0697 2.85645 19.749 3.91113 19.749C4.93652 19.749 5.7373 20.0745 6.31348 20.7256C6.88965 21.3766 7.17773 22.2751 7.17773 23.4209ZM1.48926 23.4209C1.48926 24.3877 1.69434 25.1217 2.10449 25.623C2.5179 26.1211 3.11686 26.3701 3.90137 26.3701C4.69238 26.3701 5.28971 26.1211 5.69336 25.623C6.09701 25.125 6.29883 24.391 6.29883 23.4209C6.29883 22.4606 6.09701 21.7331 5.69336 21.2383C5.29297 20.7402 4.69889 20.4912 3.91113 20.4912C3.12012 20.4912 2.5179 20.7419 2.10449 21.2432C1.69434 21.7412 1.48926 22.4671 1.48926 23.4209ZM11.1426 27.0977C10.7943 27.0977 10.4753 27.0342 10.1855 26.9072C9.89909 26.777 9.6582 26.5785 9.46289 26.3115H9.4043C9.44336 26.624 9.46289 26.9202 9.46289 27.2002V29.4023H8.65234V21.6484H9.31152L9.42383 22.3809H9.46289C9.67122 22.0879 9.91374 21.8763 10.1904 21.7461C10.4671 21.6159 10.7845 21.5508 11.1426 21.5508C11.8522 21.5508 12.3991 21.7933 12.7832 22.2783C13.1706 22.7633 13.3643 23.4437 13.3643 24.3193C13.3643 25.1982 13.1673 25.8818 12.7734 26.3701C12.3828 26.8551 11.8392 27.0977 11.1426 27.0977ZM11.0254 22.2393C10.4785 22.2393 10.083 22.3906 9.83887 22.6934C9.59473 22.9961 9.4694 23.4779 9.46289 24.1387V24.3193C9.46289 25.0713 9.58822 25.61 9.83887 25.9355C10.0895 26.2578 10.4915 26.4189 11.0449 26.4189C11.5072 26.4189 11.8685 26.2318 12.1289 25.8574C12.3926 25.4831 12.5244 24.9671 12.5244 24.3096C12.5244 23.6423 12.3926 23.1312 12.1289 22.7764C11.8685 22.4183 11.5007 22.2393 11.0254 22.2393ZM18.0078 22.3418H15.5957V27H14.7852V21.6484H18.0078V22.3418ZM22.3633 27L22.2021 26.2383H22.1631C21.8962 26.5736 21.6292 26.8014 21.3623 26.9219C21.0986 27.0391 20.7682 27.0977 20.3711 27.0977C19.8405 27.0977 19.4238 26.9609 19.1211 26.6875C18.8216 26.4141 18.6719 26.0251 18.6719 25.5205C18.6719 24.4398 19.5361 23.8734 21.2646 23.8213L22.1729 23.792V23.46C22.1729 23.04 22.0817 22.7308 21.8994 22.5322C21.7204 22.3304 21.4323 22.2295 21.0352 22.2295C20.5892 22.2295 20.0846 22.3662 19.5215 22.6396L19.2725 22.0195C19.5361 21.8763 19.8242 21.764 20.1367 21.6826C20.4525 21.6012 20.7682 21.5605 21.084 21.5605C21.722 21.5605 22.194 21.7021 22.5 21.9854C22.8092 22.2686 22.9639 22.7227 22.9639 23.3477V27H22.3633ZM20.5322 26.4287C21.0368 26.4287 21.4323 26.2904 21.7188 26.0137C22.0085 25.737 22.1533 25.3496 22.1533 24.8516V24.3682L21.3428 24.4023C20.6982 24.4251 20.2327 24.526 19.9463 24.7051C19.6631 24.8809 19.5215 25.1559 19.5215 25.5303C19.5215 25.8232 19.6094 26.0462 19.7852 26.1992C19.9642 26.3522 20.2132 26.4287 20.5322 26.4287ZM25.4492 21.6484V23.8896H28.4473V21.6484H29.2578V27H28.4473V24.5879H25.4492V27H24.6387V21.6484H25.4492ZM31.7383 21.6484V25.042L31.7041 25.9307L31.6895 26.209L34.585 21.6484H35.5957V27H34.8389V23.7285L34.8535 23.084L34.8779 22.4492L31.9873 27H30.9766V21.6484H31.7383ZM38.335 23.8701C39.3473 23.8701 39.8535 23.5902 39.8535 23.0303C39.8535 22.5029 39.4434 22.2393 38.623 22.2393C38.3724 22.2393 38.1445 22.262 37.9395 22.3076C37.7344 22.3532 37.4658 22.4443 37.1338 22.5811L36.8457 21.9219C37.3991 21.6745 38.0029 21.5508 38.6572 21.5508C39.2725 21.5508 39.7575 21.6777 40.1123 21.9316C40.4671 22.1823 40.6445 22.5257 40.6445 22.9619C40.6445 23.5609 40.3109 23.9531 39.6436 24.1387V24.1777C40.0537 24.2982 40.3532 24.4707 40.542 24.6953C40.7308 24.9167 40.8252 25.195 40.8252 25.5303C40.8252 26.0251 40.625 26.4108 40.2246 26.6875C39.8275 26.9609 39.2773 27.0977 38.5742 27.0977C37.8027 27.0977 37.207 26.9821 36.7871 26.751V26.0088C37.3828 26.2887 37.985 26.4287 38.5938 26.4287C39.0625 26.4287 39.4157 26.349 39.6533 26.1895C39.8942 26.0267 40.0146 25.7939 40.0146 25.4912C40.0146 24.8695 39.5085 24.5586 38.4961 24.5586H37.7539V23.8701H38.335ZM45.4395 27L45.2783 26.2383H45.2393C44.9723 26.5736 44.7054 26.8014 44.4385 26.9219C44.1748 27.0391 43.8444 27.0977 43.4473 27.0977C42.9167 27.0977 42.5 26.9609 42.1973 26.6875C41.8978 26.4141 41.748 26.0251 41.748 25.5205C41.748 24.4398 42.6123 23.8734 44.3408 23.8213L45.249 23.792V23.46C45.249 23.04 45.1579 22.7308 44.9756 22.5322C44.7965 22.3304 44.5085 22.2295 44.1113 22.2295C43.6654 22.2295 43.1608 22.3662 42.5977 22.6396L42.3486 22.0195C42.6123 21.8763 42.9004 21.764 43.2129 21.6826C43.5286 21.6012 43.8444 21.5605 44.1602 21.5605C44.7982 21.5605 45.2702 21.7021 45.5762 21.9854C45.8854 22.2686 46.04 22.7227 46.04 23.3477V27H45.4395ZM43.6084 26.4287C44.113 26.4287 44.5085 26.2904 44.7949 26.0137C45.0846 25.737 45.2295 25.3496 45.2295 24.8516V24.3682L44.4189 24.4023C43.7744 24.4251 43.3089 24.526 43.0225 24.7051C42.7393 24.8809 42.5977 25.1559 42.5977 25.5303C42.5977 25.8232 42.6855 26.0462 42.8613 26.1992C43.0404 26.3522 43.2894 26.4287 43.6084 26.4287ZM52.9346 28.8506H52.124V27H47.7148V21.6484H48.5254V26.3018H51.3672V21.6484H52.1777V26.3018H52.9346V28.8506ZM54.7363 21.6484V25.042L54.7021 25.9307L54.6875 26.209L57.583 21.6484H58.5938V27H57.8369V23.7285L57.8516 23.084L57.876 22.4492L54.9854 27H53.9746V21.6484H54.7363ZM60.5811 27H59.6338L61.1719 24.7393C60.7585 24.6481 60.4411 24.4723 60.2197 24.2119C60.0016 23.9482 59.8926 23.6178 59.8926 23.2207C59.8926 22.7324 60.057 22.3483 60.3857 22.0684C60.7145 21.7884 61.1735 21.6484 61.7627 21.6484H64.1455V27H63.335V24.8613H61.9824L60.5811 27ZM60.6836 23.2305C60.6836 23.849 61.1328 24.1582 62.0312 24.1582H63.335V22.3516H61.8652C61.0775 22.3516 60.6836 22.6445 60.6836 23.2305ZM70.6055 27.0977C69.8307 27.0977 69.2301 26.86 68.8037 26.3848C68.3805 25.9062 68.1689 25.2308 68.1689 24.3584C68.1689 23.4632 68.3838 22.7715 68.8135 22.2832C69.2464 21.7949 69.8617 21.5508 70.6592 21.5508C70.9163 21.5508 71.1735 21.5785 71.4307 21.6338C71.6878 21.6891 71.8896 21.7542 72.0361 21.8291L71.7871 22.5176C71.6081 22.446 71.4128 22.3874 71.2012 22.3418C70.9896 22.293 70.8024 22.2686 70.6396 22.2686C69.5524 22.2686 69.0088 22.9619 69.0088 24.3486C69.0088 25.0062 69.1406 25.5107 69.4043 25.8623C69.6712 26.2139 70.0651 26.3896 70.5859 26.3896C71.0319 26.3896 71.4893 26.2936 71.958 26.1016V26.8193C71.5999 27.0049 71.1491 27.0977 70.6055 27.0977ZM75.4932 27.0977C74.7021 27.0977 74.0771 26.8568 73.6182 26.375C73.1624 25.8932 72.9346 25.2243 72.9346 24.3682C72.9346 23.5055 73.1462 22.8203 73.5693 22.3125C73.9958 21.8047 74.5671 21.5508 75.2832 21.5508C75.9538 21.5508 76.4844 21.7721 76.875 22.2148C77.2656 22.6543 77.4609 23.2354 77.4609 23.958V24.4707H73.7744C73.7907 25.099 73.9486 25.5758 74.248 25.9014C74.5508 26.2269 74.9756 26.3896 75.5225 26.3896C76.0986 26.3896 76.6683 26.2692 77.2314 26.0283V26.751C76.945 26.8747 76.6732 26.9626 76.416 27.0146C76.1621 27.07 75.8545 27.0977 75.4932 27.0977ZM75.2734 22.2295C74.8438 22.2295 74.5003 22.3695 74.2432 22.6494C73.9893 22.9294 73.8395 23.3167 73.7939 23.8115H76.5918C76.5918 23.3005 76.4779 22.9098 76.25 22.6396C76.0221 22.3662 75.6966 22.2295 75.2734 22.2295ZM81.626 26.2188L81.7773 25.7646L81.9873 25.1885L83.4375 21.6582H84.4678V27H83.75V22.5811L83.6523 22.8643L83.3691 23.6113L81.9873 27H81.3086L79.9268 23.6016C79.7542 23.1654 79.6354 22.8252 79.5703 22.5811V27H78.8477V21.6582H79.8389L81.2402 25.0518C81.3802 25.4098 81.5088 25.7988 81.626 26.2188ZM86.9629 21.6484V25.042L86.9287 25.9307L86.9141 26.209L89.8096 21.6484H90.8203V27H90.0635V23.7285L90.0781 23.084L90.1025 22.4492L87.2119 27H86.2012V21.6484H86.9629ZM93.3496 21.6484V23.8896H96.3477V21.6484H97.1582V27H96.3477V24.5879H93.3496V27H92.5391V21.6484H93.3496ZM102.168 27L102.007 26.2383H101.968C101.701 26.5736 101.434 26.8014 101.167 26.9219C100.903 27.0391 100.573 27.0977 100.176 27.0977C99.6452 27.0977 99.2285 26.9609 98.9258 26.6875C98.6263 26.4141 98.4766 26.0251 98.4766 25.5205C98.4766 24.4398 99.3408 23.8734 101.069 23.8213L101.978 23.792V23.46C101.978 23.04 101.886 22.7308 101.704 22.5322C101.525 22.3304 101.237 22.2295 100.84 22.2295C100.394 22.2295 99.8893 22.3662 99.3262 22.6396L99.0771 22.0195C99.3408 21.8763 99.6289 21.764 99.9414 21.6826C100.257 21.6012 100.573 21.5605 100.889 21.5605C101.527 21.5605 101.999 21.7021 102.305 21.9854C102.614 22.2686 102.769 22.7227 102.769 23.3477V27H102.168ZM100.337 26.4287C100.841 26.4287 101.237 26.2904 101.523 26.0137C101.813 25.737 101.958 25.3496 101.958 24.8516V24.3682L101.147 24.4023C100.503 24.4251 100.037 24.526 99.751 24.7051C99.4678 24.8809 99.3262 25.1559 99.3262 25.5303C99.3262 25.8232 99.4141 26.0462 99.5898 26.1992C99.7689 26.3522 100.018 26.4287 100.337 26.4287ZM106.934 27.0977C106.585 27.0977 106.266 27.0342 105.977 26.9072C105.69 26.777 105.449 26.5785 105.254 26.3115H105.195C105.234 26.624 105.254 26.9202 105.254 27.2002V29.4023H104.443V21.6484H105.103L105.215 22.3809H105.254C105.462 22.0879 105.705 21.8763 105.981 21.7461C106.258 21.6159 106.576 21.5508 106.934 21.5508C107.643 21.5508 108.19 21.7933 108.574 22.2783C108.962 22.7633 109.155 23.4437 109.155 24.3193C109.155 25.1982 108.958 25.8818 108.564 26.3701C108.174 26.8551 107.63 27.0977 106.934 27.0977ZM106.816 22.2393C106.27 22.2393 105.874 22.3906 105.63 22.6934C105.386 22.9961 105.26 23.4779 105.254 24.1387V24.3193C105.254 25.0713 105.379 25.61 105.63 25.9355C105.881 26.2578 106.283 26.4189 106.836 26.4189C107.298 26.4189 107.66 26.2318 107.92 25.8574C108.184 25.4831 108.315 24.9671 108.315 24.3096C108.315 23.6423 108.184 23.1312 107.92 22.7764C107.66 22.4183 107.292 22.2393 106.816 22.2393ZM115.195 24.3193C115.195 25.1917 114.976 25.8737 114.536 26.3652C114.097 26.8535 113.49 27.0977 112.715 27.0977C112.236 27.0977 111.812 26.9854 111.44 26.7607C111.069 26.5361 110.783 26.2139 110.581 25.7939C110.379 25.374 110.278 24.8825 110.278 24.3193C110.278 23.4469 110.496 22.7682 110.933 22.2832C111.369 21.7949 111.974 21.5508 112.749 21.5508C113.498 21.5508 114.092 21.7998 114.531 22.2979C114.974 22.7959 115.195 23.4697 115.195 24.3193ZM111.118 24.3193C111.118 25.0029 111.255 25.5238 111.528 25.8818C111.802 26.2399 112.204 26.4189 112.734 26.4189C113.265 26.4189 113.667 26.2415 113.94 25.8867C114.217 25.5286 114.355 25.0062 114.355 24.3193C114.355 23.639 114.217 23.123 113.94 22.7715C113.667 22.4167 113.262 22.2393 112.725 22.2393C112.194 22.2393 111.794 22.4134 111.523 22.7617C111.253 23.11 111.118 23.6292 111.118 24.3193ZM120.962 22.9912C120.962 23.3395 120.861 23.6048 120.659 23.7871C120.461 23.9661 120.181 24.0866 119.819 24.1484V24.1924C120.275 24.2542 120.607 24.3877 120.815 24.5928C121.027 24.7979 121.133 25.0811 121.133 25.4424C121.133 25.9404 120.949 26.3245 120.581 26.5947C120.216 26.8649 119.683 27 118.979 27H116.621V21.6484H118.97C120.298 21.6484 120.962 22.096 120.962 22.9912ZM120.322 25.3887C120.322 25.099 120.212 24.889 119.99 24.7588C119.772 24.6253 119.409 24.5586 118.901 24.5586H117.432V26.3213H118.921C119.855 26.3213 120.322 26.0104 120.322 25.3887ZM120.171 23.0693C120.171 22.8089 120.07 22.625 119.868 22.5176C119.67 22.4069 119.367 22.3516 118.96 22.3516H117.432V23.8604H118.804C119.305 23.8604 119.658 23.7985 119.863 23.6748C120.068 23.5511 120.171 23.3493 120.171 23.0693Z" fill="white"/>
<path d="M87.4082 10.1758V15H83.9805V0.78125H89.6543C90.7415 0.78125 91.7018 0.983073 92.5352 1.38672C93.375 1.78385 94.0228 2.35352 94.4785 3.0957C94.9408 3.83138 95.1719 4.66797 95.1719 5.60547C95.1719 6.99219 94.6738 8.10221 93.6777 8.93555C92.6882 9.76237 91.3275 10.1758 89.5957 10.1758H87.4082ZM87.4082 7.5293H89.6543C90.3184 7.5293 90.8229 7.36328 91.168 7.03125C91.5195 6.69922 91.6953 6.23047 91.6953 5.625C91.6953 4.96094 91.5163 4.43034 91.1582 4.0332C90.8001 3.63607 90.3118 3.43424 89.6934 3.42773H87.4082V7.5293ZM103.748 7.41211L102.664 7.33398C101.629 7.33398 100.965 7.65951 100.672 8.31055V15H97.3809V4.43359H100.467L100.574 5.79102C101.128 4.75586 101.899 4.23828 102.889 4.23828C103.24 4.23828 103.546 4.27734 103.807 4.35547L103.748 7.41211ZM104.668 9.61914C104.668 8.56445 104.873 7.62695 105.283 6.80664C105.693 5.97982 106.283 5.34505 107.051 4.90234C107.819 4.45964 108.721 4.23828 109.756 4.23828C111.338 4.23828 112.585 4.72982 113.496 5.71289C114.408 6.68945 114.863 8.02083 114.863 9.70703V9.82422C114.863 11.4714 114.404 12.7799 113.486 13.75C112.575 14.7135 111.338 15.1953 109.775 15.1953C108.271 15.1953 107.064 14.7461 106.152 13.8477C105.241 12.9427 104.749 11.7188 104.678 10.1758L104.668 9.61914ZM107.959 9.82422C107.959 10.8008 108.112 11.5169 108.418 11.9727C108.724 12.4284 109.176 12.6562 109.775 12.6562C110.947 12.6562 111.546 11.7546 111.572 9.95117V9.61914C111.572 7.72461 110.967 6.77734 109.756 6.77734C108.656 6.77734 108.06 7.5944 107.969 9.22852L107.959 9.82422Z" fill="#E9AA09"/>
</svg>
