<svg width="46" height="46" viewBox="0 0 46 46" fill="none" xmlns="http://www.w3.org/2000/svg">
<circle cx="23" cy="23" r="22" stroke="white" stroke-width="2"/>
<g clip-path="url(#clip0)">
<path d="M12.4484 29.4381L15.5371 26.2255C16.1523 25.5883 17.1711 25.6076 17.8077 26.27L19.3638 27.888C19.4621 27.8316 19.5639 27.7727 19.6709 27.7103C20.6535 27.144 21.9985 26.3679 23.4137 24.895C24.8332 23.4189 25.5801 22.018 26.1263 20.9954C26.1839 20.8871 26.2391 20.7826 26.2937 20.6834L25.2493 19.5989L24.7358 19.0643C24.0982 18.401 24.0806 17.3417 24.6944 16.7026L27.7831 13.4897C28.3969 12.8515 29.4161 12.8708 30.0537 13.5341L30.9242 14.4446L30.9005 14.4692C31.1923 14.8565 31.4363 15.3033 31.6178 15.785C31.7851 16.2436 31.8893 16.6812 31.9369 17.1197C32.3447 20.636 30.7997 23.8497 26.6066 28.2106C20.8104 34.2381 16.1395 33.7828 15.938 33.7606C15.4991 33.706 15.0786 33.597 14.6511 33.4243C14.1919 33.2378 13.7626 32.9844 13.3904 32.6815L13.3714 32.6991L12.4895 31.801C11.8532 31.1378 11.8349 30.0782 12.4484 29.4381Z" fill="#FEFEFE"/>
</g>
<defs>
<clipPath id="clip0">
<rect width="20" height="20.8" transform="matrix(-1 0 0 1 32 13)" fill="white"/>
</clipPath>
</defs>
</svg>
